<?xml version="1.0" encoding="UTF-8" standalone="no"?>
<!-- Created with Inkscape (http://www.inkscape.org/) -->

<svg
   width="30"
   height="30"
   id="svg2733"
   sodipodi:version="0.32"
   inkscape:version="1.3.2 (091e20e, 2023-11-25, custom)"
   version="1.0"
   sodipodi:docname="blu-ray-orig.svg"
   xmlns:inkscape="http://www.inkscape.org/namespaces/inkscape"
   xmlns:sodipodi="http://sodipodi.sourceforge.net/DTD/sodipodi-0.dtd"
   xmlns="http://www.w3.org/2000/svg"
   xmlns:svg="http://www.w3.org/2000/svg"
   xmlns:rdf="http://www.w3.org/1999/02/22-rdf-syntax-ns#"
   xmlns:cc="http://creativecommons.org/ns#"
   xmlns:dc="http://purl.org/dc/elements/1.1/">
  <defs
     id="defs2735" />
  <sodipodi:namedview
     id="base"
     pagecolor="#ffffff"
     bordercolor="#666666"
     borderopacity="1.0"
     inkscape:pageopacity="0.0"
     inkscape:pageshadow="2"
     inkscape:zoom="31.678384"
     inkscape:cx="16.746435"
     inkscape:cy="14.505159"
     inkscape:document-units="px"
     inkscape:current-layer="layer1"
     width="235.67mm"
     height="125.27mm"
     units="mm"
     inkscape:window-width="2560"
     inkscape:window-height="1377"
     inkscape:window-x="2552"
     inkscape:window-y="-8"
     inkscape:showpageshadow="0"
     inkscape:pagecheckerboard="0"
     inkscape:deskcolor="#505050"
     inkscape:window-maximized="1" />
  <metadata
     id="metadata2738">
    <rdf:RDF>
      <cc:Work
         rdf:about="">
        <dc:format>image/svg+xml</dc:format>
        <dc:type
           rdf:resource="http://purl.org/dc/dcmitype/StillImage" />
      </cc:Work>
    </rdf:RDF>
  </metadata>
  <g
     inkscape:label="Ebene 1"
     inkscape:groupmode="layer"
     id="layer1"
     transform="translate(-108.8729,-156.8213)">
    <path
       id="path137"
       class="ps02"
       d="m 114.07133,169.92716 c 0,-0.59181 1.67939,-1.42017 4.41508,-1.42017 2.73655,0 4.41421,0.82836 4.41421,1.42017 0,0.59274 -1.67766,1.41557 -4.41421,1.41557 -2.73569,0 -4.41508,-0.82283 -4.41508,-1.41557 z m -1.74531,-10.2256 c -0.0186,0 -0.0356,0.0221 -0.0464,0.0525 -1.29261,3.8629 -2.07442,6.48235 -2.88311,9.65772 l -0.0807,0.35067 -0.0236,0.11321 c -0.0686,0.30741 -0.0526,0.6498 0.0457,0.97378 0.47871,1.5886 3.16193,3.44412 9.1493,3.44412 4.46495,0 9.21001,-1.5297 9.21001,-4.36636 0,-2.74002 -4.68306,-4.37372 -9.21001,-4.37372 -1.50248,0 -2.99022,0.45007 -3.41993,0.59273 0.4102,-1.3401 2.10911,-6.19611 2.12689,-6.24765 0.007,-0.0212 0.0126,-0.046 0.0126,-0.0727 0,-0.0193 -0.004,-0.0377 -0.008,-0.0571 -0.01,-0.0405 -0.0303,-0.0672 -0.0507,-0.0672 h -4.82224"
       style="display:inline;fill:#008ac2;fill-opacity:1;fill-rule:nonzero;stroke:none;stroke-width:0.0338205" />
    <path
       id="path145"
       class="ps02"
       d="m 114.07133,169.92716 c 0,-0.59181 1.67939,-1.42017 4.41508,-1.42017 2.73655,0 4.41421,0.82836 4.41421,1.42017 0,0.59274 -1.67766,1.41557 -4.41421,1.41557 -2.73569,0 -4.41508,-0.82283 -4.41508,-1.41557 z m -1.74531,-10.2256 c -0.0186,0 -0.0356,0.0221 -0.0464,0.0525 -1.29261,3.8629 -2.07442,6.48235 -2.88311,9.65772 l -0.0807,0.35067 -0.0236,0.11321 c -0.0686,0.30741 -0.0526,0.6498 0.0457,0.97378 0.47871,1.5886 3.16193,3.44412 9.1493,3.44412 4.46495,0 9.21001,-1.5297 9.21001,-4.36636 0,-2.74002 -4.68306,-4.37372 -9.21001,-4.37372 -1.50248,0 -2.99022,0.45007 -3.41993,0.59273 0.4102,-1.3401 2.10911,-6.19611 2.12689,-6.24765 0.007,-0.0212 0.0126,-0.046 0.0126,-0.0727 0,-0.0193 -0.004,-0.0377 -0.008,-0.0571 -0.01,-0.0405 -0.0303,-0.0672 -0.0507,-0.0672 h -4.82224"
       style="display:inline;fill:#008ac2;fill-opacity:1;fill-rule:nonzero;stroke:none;stroke-width:0.0338205" />
    <path
       id="path147"
       class="ps02"
       d="m 115.71386,184.19423 c 0,0 22.2675,1.91902 22.74361,-14.59933 0.38418,-13.39637 -15.4298,-12.12347 -15.44411,-12.12347 -0.0156,0 -0.12445,0.0249 -0.12445,0.21354 0,0.16383 0.0572,0.21537 0.11317,0.21537 4.3869,0 11.52119,3.69631 11.28834,11.70468 -0.18776,6.52653 -5.75366,14.16306 -18.57005,14.16306 -0.0755,0 -0.12705,0.11045 -0.12705,0.20985 0,0.10217 0.0308,0.19421 0.12054,0.2163"
       style="display:inline;fill:#008ac2;fill-opacity:1;fill-rule:nonzero;stroke:none;stroke-width:0.0338205" />
    <path
       id="path149"
       class="ps02"
       d="m 132.76299,182.79648 h -1.23565 v -0.42832 h 2.88216 v 0.42832 h -1.23409 v 3.40267 h -0.41242 v -3.40267"
       style="display:inline;fill:#008ac2;fill-opacity:1;fill-rule:nonzero;stroke:none;stroke-width:0.0519499" />
    <path
       id="path151"
       class="ps02"
       d="m 134.6981,182.36026 h 0.5673 l 0.97722,3.23889 0.98352,-3.23889 h 0.56574 v 3.84679 h -0.39027 v -3.19564 h -0.0105 l -0.9725,3.19564 h -0.35171 l -0.96858,-3.19564 h -0.007 v 3.19564 h -0.39342 v -3.84679"
       style="display:inline;fill:#008ac2;fill-opacity:1;fill-rule:nonzero;stroke:none;stroke-width:0.0520494" />
  </g>
</svg>
