<?xml version="1.0" encoding="UTF-8" standalone="no"?>
<!-- Created with Inkscape (http://www.inkscape.org/) -->

<svg
   width="30"
   height="30"
   id="svg2733"
   sodipodi:version="0.32"
   inkscape:version="1.3.2 (091e20e, 2023-11-25, custom)"
   version="1.0"
   sodipodi:docname="blu-ray-outline.svg"
   xmlns:inkscape="http://www.inkscape.org/namespaces/inkscape"
   xmlns:sodipodi="http://sodipodi.sourceforge.net/DTD/sodipodi-0.dtd"
   xmlns="http://www.w3.org/2000/svg"
   xmlns:svg="http://www.w3.org/2000/svg"
   xmlns:rdf="http://www.w3.org/1999/02/22-rdf-syntax-ns#"
   xmlns:cc="http://creativecommons.org/ns#"
   xmlns:dc="http://purl.org/dc/elements/1.1/">
  <defs
     id="defs2735" />
  <sodipodi:namedview
     id="base"
     pagecolor="#ffffff"
     bordercolor="#666666"
     borderopacity="1.0"
     inkscape:pageopacity="0.0"
     inkscape:pageshadow="2"
     inkscape:zoom="31.678384"
     inkscape:cx="16.399195"
     inkscape:cy="13.873814"
     inkscape:document-units="px"
     inkscape:current-layer="layer1"
     width="235.67mm"
     height="125.27mm"
     units="mm"
     inkscape:window-width="2560"
     inkscape:window-height="1377"
     inkscape:window-x="5112"
     inkscape:window-y="30"
     inkscape:showpageshadow="0"
     inkscape:pagecheckerboard="0"
     inkscape:deskcolor="#505050"
     inkscape:window-maximized="1" />
  <metadata
     id="metadata2738">
    <rdf:RDF>
      <cc:Work
         rdf:about="">
        <dc:format>image/svg+xml</dc:format>
        <dc:type
           rdf:resource="http://purl.org/dc/dcmitype/StillImage" />
      </cc:Work>
    </rdf:RDF>
  </metadata>
  <g
     inkscape:label="Ebene 1"
     inkscape:groupmode="layer"
     id="layer1"
     transform="translate(-108.8729,-156.8213)">
    <path
       id="path137"
       class="ps02"
       d="m 115.59782,171.25121 c 0,-0.66479 1.67939,-1.5953 4.41508,-1.5953 2.73655,0 4.41421,0.93051 4.41421,1.5953 0,0.66583 -1.67766,1.59012 -4.41421,1.59012 -2.73569,0 -4.41508,-0.92429 -4.41508,-1.59012 z m -1.74531,-11.48652 c -0.0186,0 -0.0356,0.0248 -0.0464,0.059 -1.29261,4.33924 -2.07442,7.28169 -2.88311,10.84861 l -0.0807,0.39391 -0.0236,0.12717 c -0.0686,0.34532 -0.0526,0.72993 0.0457,1.09386 0.47871,1.78449 3.16193,3.86881 9.1493,3.86881 4.46495,0 9.21001,-1.71832 9.21001,-4.90477 0,-3.07789 -4.68306,-4.91304 -9.21001,-4.91304 -1.50248,0 -2.99022,0.50557 -3.41993,0.66582 0.4102,-1.50535 2.10911,-6.96015 2.12689,-7.01805 0.007,-0.0238 0.0126,-0.0517 0.0126,-0.0817 0,-0.0217 -0.004,-0.0423 -0.008,-0.0641 -0.01,-0.0455 -0.0303,-0.0755 -0.0507,-0.0755 h -4.82224"
       style="display:inline;fill:none;fill-opacity:1;fill-rule:nonzero;stroke:#ffffff;stroke-width:1;stroke-linejoin:round;stroke-dasharray:none;stroke-opacity:1" />
    <path
       id="path147"
       class="ps02"
       d="m 113.71386,184.19423 c 0,0 22.2675,1.91902 22.74361,-14.59933 0.38418,-13.39637 -15.4298,-12.12347 -15.44411,-12.12347 -0.0156,0 -0.12445,0.0249 -0.12445,0.21354 0,0.16383 0.0572,0.21537 0.11317,0.21537 4.3869,0 11.52119,3.69631 11.28834,11.70468 -0.18776,6.52653 -5.75366,14.16306 -18.57005,14.16306 -0.0755,0 -0.12705,0.11045 -0.12705,0.20985 0,0.10217 0.0308,0.19421 0.12054,0.2163"
       style="display:inline;fill:none;fill-opacity:1;fill-rule:nonzero;stroke:#ffffff;stroke-width:1;stroke-dasharray:none;stroke-opacity:1" />
    <path
       id="path149"
       class="ps02"
       d="m 132.76299,182.79648 h -1.23565 v -0.42832 h 2.88216 v 0.42832 h -1.23409 v 3.40267 h -0.41242 v -3.40267"
       style="display:inline;fill:#ffffff;fill-opacity:1;fill-rule:nonzero;stroke:none;stroke-width:0.0519499" />
    <path
       id="path151"
       class="ps02"
       d="m 134.6981,182.36026 h 0.5673 l 0.97722,3.23889 0.98352,-3.23889 h 0.56574 v 3.84679 h -0.39027 v -3.19564 h -0.0105 l -0.9725,3.19564 h -0.35171 l -0.96858,-3.19564 h -0.007 v 3.19564 h -0.39342 v -3.84679"
       style="display:inline;fill:#ffffff;fill-opacity:1;fill-rule:nonzero;stroke:none;stroke-width:0.0520494" />
  </g>
</svg>
